# xmcd CD database file
#
# Track frame offsets:
#	150
#	16307
#	32370
#	47775
#	63664
#	79835
#	95440
#	111245
#	126782
#	141045
#	156837
#	172780
#
# Disc length: 2518 seconds
#
# Revision: 0
# Processed by: cddbd v1.4PL0 Copyright (c) Steve Scherf et al.
# Submitted via: Feurio! 1.65 - http://www.feurio.com
#
DISCID=9409d40c
DTITLE=Relax - Immerno' in di verknoit
DYEAR=1900
DGENRE=
TTITLE0=Immerno' in die verknoit
TTITLE1=Gut'n Morg'n Schatz
TTITLE2=Jed'n Dog a Ros'n
TTITLE3=Bleib no' a bisserl bei mir
TTITLE4=I schaug dei Buidl o
TTITLE5=Setz' di her zu mir
TTITLE6=Gib ma do' a Busserl
TTITLE7=Weil dei Stern vom Himmi foit
TTITLE8=Eile mit Weile
TTITLE9=Du derfst niemehr von mir weggehn
TTITLE10=Warum schaugst mi net o
TTITLE11=Ich seh'n mich so nach dir
EXTD=
EXTT0=
EXTT1=
EXTT2=
EXTT3=
EXTT4=
EXTT5=
EXTT6=
EXTT7=
EXTT8=
EXTT9=
EXTT10=
EXTT11=
PLAYORDER=
